<?xml version="1.0" standalone="no"?>
<!DOCTYPE svg PUBLIC "-//W3C//DTD SVG 20010904//EN"
 "http://www.w3.org/TR/2001/REC-SVG-20010904/DTD/svg10.dtd">
<svg version="1.0" xmlns="http://www.w3.org/2000/svg"
 width="1024.000000pt" height="1024.000000pt" viewBox="0 0 1024.000000 1024.000000"
 preserveAspectRatio="xMidYMid meet">

<g transform="translate(0.000000,1024.000000) scale(0.100000,-0.100000)"
fill="#000000" stroke="none">
<path d="M0 5120 l0 -5120 5120 0 5120 0 0 5120 0 5120 -5120 0 -5120 0 0
-5120z m5277 3379 c43 -17 159 -60 258 -94 99 -35 218 -78 265 -95 47 -18 150
-56 230 -85 80 -29 244 -89 365 -133 535 -196 651 -238 835 -304 107 -38 290
-105 405 -147 116 -43 262 -97 325 -119 383 -139 705 -263 721 -278 18 -16 19
-34 19 -230 0 -180 -2 -215 -16 -228 -8 -9 -21 -16 -29 -16 -14 0 -202 66
-267 94 -21 9 -42 16 -47 16 -5 0 -8 -592 -6 -1527 2 -841 4 -1887 4 -2325 l1
-797 155 6 c153 6 156 6 180 -17 31 -29 32 -50 2 -78 l-24 -22 -3479 -1 -3479
0 -18 22 c-23 28 -22 52 4 75 18 17 40 19 180 22 l158 3 1 2320 c0 1275 -1
2319 -4 2319 -2 0 -57 -20 -121 -45 -151 -59 -188 -67 -214 -48 -20 13 -21 24
-21 228 l0 213 33 20 c54 34 263 115 832 322 154 56 421 155 785 290 296 110
804 295 950 346 52 18 151 53 220 79 69 25 175 63 235 85 191 66 349 126 380
143 45 24 96 20 182 -14z m423 -6540 c14 -26 12 -37 -10 -59 -17 -17 -33 -20
-124 -20 -97 0 -106 2 -120 22 -19 27 -20 54 -3 65 13 8 213 21 235 14 7 -2
17 -12 22 -22z m420 9 c24 -26 25 -37 4 -66 -14 -20 -23 -22 -113 -22 -111 0
-124 7 -119 62 l3 33 95 6 c52 3 98 6 102 7 4 1 16 -8 28 -20z m468 10 c21
-27 23 -57 5 -75 -15 -15 -34 -18 -120 -17 -109 1 -133 10 -133 48 0 38 13 45
95 49 44 1 94 4 111 5 17 1 36 -4 42 -10z m-4332 -6 c19 -12 27 -52 14 -67
-17 -20 -94 -19 -114 1 -20 20 -20 27 2 46 29 26 75 36 98 20z m359 -12 c15
-17 16 -24 7 -45 -11 -24 -15 -25 -102 -25 l-90 0 0 35 c0 44 19 53 106 54 49
1 65 -3 79 -19z m435 0 c24 -24 24 -30 6 -56 -12 -16 -29 -19 -121 -22 -94 -3
-108 -2 -120 15 -18 22 -19 55 -3 71 8 8 48 12 115 12 90 0 106 -3 123 -20z
m639 -12 c14 -24 14 -28 -3 -47 -17 -19 -31 -21 -117 -21 -89 0 -99 2 -109 21
-6 11 -10 30 -8 42 4 27 41 35 148 33 70 -1 75 -3 89 -28z m487 24 c6 -4 16
-17 22 -28 9 -18 7 -25 -12 -43 -20 -19 -34 -21 -141 -21 -96 0 -122 3 -137
17 -22 20 -23 41 -1 65 14 16 32 18 137 18 67 0 126 -4 132 -8z m506 -9 c21
-19 24 -56 4 -72 -9 -8 -55 -11 -137 -9 -122 3 -123 3 -138 30 -14 24 -14 28
3 47 17 19 31 21 134 21 93 0 119 -3 134 -17z m530 0 c22 -20 23 -46 2 -67
-12 -13 -40 -16 -141 -16 -136 0 -163 9 -163 55 0 40 17 45 154 45 106 0 133
-3 148 -17z m1746 5 c18 -18 15 -45 -8 -68 -16 -16 -33 -20 -83 -20 -36 0 -68
5 -75 12 -13 13 -17 70 -5 81 12 12 158 8 171 -5z m368 -9 c37 -41 -20 -82
-104 -76 -56 4 -72 16 -72 53 0 34 20 44 90 44 55 0 70 -4 86 -21z m444 2 c14
-28 13 -38 -10 -61 -17 -17 -33 -20 -120 -20 -96 0 -100 1 -116 25 -14 21 -15
31 -6 50 11 24 14 25 126 25 104 0 116 -2 126 -19z m435 3 c9 -9 15 -28 13
-42 -4 -34 -49 -46 -146 -39 -80 6 -102 17 -102 53 0 35 26 43 127 44 71 0 95
-4 108 -16z m-4918 -9 c7 -20 -24 -55 -49 -55 -24 0 -58 18 -58 30 0 13 51 39
78 40 12 0 25 -7 29 -15z"/>
<path d="M5045 8366 c-60 -23 -171 -64 -245 -91 -74 -26 -196 -70 -270 -98
-258 -95 -406 -148 -515 -187 -129 -45 -318 -114 -535 -195 -85 -32 -342 -127
-570 -212 -595 -220 -794 -296 -973 -366 l-157 -61 0 -117 0 -118 63 26 c106
43 288 113 372 143 44 15 231 85 415 155 184 70 382 144 440 165 58 21 220 82
360 136 140 53 280 104 310 114 30 10 161 57 290 105 129 48 271 99 315 115
44 16 143 52 220 80 77 28 228 83 335 121 107 38 212 76 232 84 40 16 28 19
398 -122 80 -30 219 -81 310 -113 91 -32 271 -97 400 -145 129 -48 278 -102
330 -120 52 -18 158 -56 235 -85 77 -29 239 -87 360 -130 121 -43 274 -98 340
-123 66 -25 253 -95 415 -155 162 -61 377 -144 478 -185 l183 -74 -3 129 -3
130 -70 23 c-38 12 -180 64 -315 115 -135 50 -317 118 -405 150 -88 31 -221
80 -295 108 -74 28 -250 92 -390 142 -140 50 -331 120 -425 155 -161 61 -352
131 -635 231 -69 25 -179 66 -245 91 -66 25 -195 72 -288 104 -92 32 -199 72
-238 89 -39 16 -81 30 -93 29 -11 0 -70 -19 -131 -43z"/>
<path d="M5100 8024 c-36 -14 -139 -52 -230 -84 -91 -32 -232 -83 -315 -115
-156 -59 -254 -95 -590 -215 -198 -70 -696 -255 -890 -330 -143 -55 -900 -336
-934 -346 -9 -3 -12 -14 -7 -35 3 -18 6 -1073 6 -2345 l0 -2314 240 0 240 0 0
1940 c-1 1067 2 1945 5 1950 4 7 570 10 1614 10 1484 0 1610 -1 1622 -17 12
-13 15 -147 17 -755 l3 -738 -60 0 c-60 0 -61 0 -61 28 1 15 0 327 -2 694 l-3
668 -260 1 c-143 1 -821 2 -1507 3 l-1248 1 0 -1887 0 -1888 24 0 c13 0 43 -3
67 -6 l44 -6 0 1812 0 1812 1376 2 1377 1 7 -59 c3 -32 5 -312 4 -621 l-3
-563 -35 -6 c-71 -12 -101 -8 -101 13 0 19 -16 20 -662 23 -365 2 -927 2
-1249 0 l-586 -3 -6 -52 c-4 -28 -5 -53 -2 -55 2 -2 194 -4 427 -4 475 0 575
-6 597 -35 15 -19 16 -18 31 11 25 50 50 57 201 54 103 -2 140 -7 154 -18 16
-13 84 -15 513 -12 l495 4 -6 -69 c-4 -37 -7 -80 -7 -94 l0 -26 -57 20 c-52
17 -74 19 -220 13 -146 -6 -179 -4 -333 20 -145 22 -184 25 -262 18 l-90 -9
-20 -50 c-31 -83 -52 -95 -168 -95 -54 0 -110 4 -124 10 -17 6 -35 31 -60 82
l-35 73 -103 -6 c-57 -4 -284 -12 -506 -20 -352 -11 -405 -15 -412 -29 -5 -9
-10 -218 -12 -466 -2 -350 0 -454 10 -471 10 -18 10 -49 -3 -167 -24 -228 -16
-528 16 -591 7 -14 6 -34 -2 -65 -7 -25 -14 -119 -16 -210 l-4 -165 118 -3
c65 -1 157 2 206 8 59 7 94 7 106 0 20 -10 450 -14 1492 -11 l617 1 -3 560
c-1 309 2 563 6 566 5 3 9 250 9 549 l0 544 27 21 c26 20 31 20 512 17 l487
-4 0 46 c-1 25 0 268 2 539 l2 492 34 38 34 37 564 1 c310 0 573 -3 585 -7 12
-5 26 -16 31 -26 13 -25 22 -316 22 -749 l0 -371 47 -2 c50 -1 86 -19 102 -50
7 -12 11 -394 11 -1110 l1 -1091 105 0 104 0 0 2345 0 2346 -33 14 c-17 8
-124 48 -237 89 -113 40 -284 103 -380 140 -96 36 -332 123 -525 192 -499 180
-622 225 -780 284 -77 28 -207 76 -290 105 -182 65 -359 130 -609 224 -104 39
-191 71 -195 71 -3 -1 -35 -12 -71 -26z m42 -136 c10 -18 14 -190 16 -801 l3
-777 -25 -25 c-31 -31 -41 -31 -71 0 l-25 24 0 774 c0 816 -1 790 45 815 30
17 43 14 57 -10z m320 -65 c17 -15 18 -52 18 -770 0 -740 0 -753 -20 -773 -26
-26 -52 -25 -76 1 -18 20 -19 50 -22 774 -2 677 -1 755 14 769 20 21 63 20 86
-1z m-634 -35 c9 -9 12 -184 12 -724 0 -391 -3 -726 -6 -743 -5 -21 -16 -37
-35 -46 -26 -14 -30 -13 -56 9 l-27 24 2 713 c1 393 5 721 7 729 6 18 53 49
76 50 8 0 20 -5 27 -12z m947 -83 l25 -24 0 -699 0 -700 -31 -12 c-27 -11 -33
-11 -57 7 l-27 20 0 702 c0 684 1 703 19 717 28 20 43 18 71 -11z m-1271 -47
c14 -20 16 -102 16 -686 l0 -663 -25 -25 -26 -25 -32 18 -32 19 -3 669 c-2
603 -1 670 14 686 9 10 26 20 38 22 11 2 24 5 28 6 4 0 14 -9 22 -21z m1602
-79 c18 -21 19 -61 22 -1469 3 -1323 2 -1449 -13 -1464 -19 -19 -68 -21 -83
-3 -7 8 -12 492 -17 1473 -7 1414 -6 1462 12 1473 29 16 58 13 79 -10z m-1925
-36 c12 -13 15 -127 17 -629 l3 -612 -27 -21 c-27 -21 -27 -21 -58 -1 l-31 19
-3 606 -2 606 24 24 c29 29 58 32 77 8z m2237 -63 c20 -19 22 -31 23 -133 8
-1617 8 -2691 -2 -2703 -6 -8 -26 -14 -45 -14 -69 0 -64 -108 -64 1439 0 1283
1 1396 17 1413 21 24 44 23 71 -2z m-2554 -62 c14 -20 16 -91 16 -570 l0 -547
-22 -21 c-28 -26 -39 -25 -72 5 l-26 24 0 547 c0 495 2 549 17 566 23 25 68
23 87 -4z m2882 -69 c18 -20 19 -48 19 -786 l0 -765 -24 -19 c-30 -25 -35 -24
-68 9 l-28 27 5 768 c4 668 7 769 20 777 25 16 56 11 76 -11z m-3196 -55 c11
-29 12 -944 1 -984 -4 -14 -19 -31 -33 -39 -23 -13 -29 -13 -52 2 l-26 17 0
497 c0 553 -2 533 67 533 27 0 35 -5 43 -26z m3511 -53 l24 -19 -2 -701 c-1
-386 -5 -710 -8 -721 -7 -23 -60 -28 -88 -7 -17 11 -18 60 -17 722 0 642 2
711 17 727 21 23 45 23 74 -1z m-3853 -63 c8 -8 12 -51 12 -126 l0 -115 -62 7
c-34 3 -64 8 -66 11 -3 3 -1 51 5 107 8 79 14 104 28 115 23 16 67 17 83 1z
m4174 -60 c19 -34 24 -1272 5 -1308 -14 -28 -54 -38 -87 -20 -20 11 -20 16
-20 668 0 499 3 661 12 670 21 21 76 15 90 -10z m-4627 -99 c9 -14 10 -723 1
-738 -18 -29 -44 -31 -74 -6 l-29 24 -6 191 c-4 105 -4 262 0 347 5 133 9 159
25 175 20 20 73 24 83 7z m4943 -7 c16 -16 17 -56 16 -607 0 -325 -4 -600 -8
-612 -6 -18 -15 -23 -39 -23 -18 0 -40 7 -50 14 -18 14 -18 45 -18 618 1 551
3 604 18 616 24 17 60 15 81 -6z m-5278 -112 c10 -6 17 -33 20 -85 3 -41 3
-1061 2 -2266 l-4 -2190 -25 -10 c-14 -5 -38 -6 -56 -1 l-32 8 -3 2257 -2
2257 32 20 c37 22 47 24 68 10z m5585 -15 l25 -24 0 -363 c1 -480 8 -907 20
-1151 11 -220 12 -605 2 -682 -7 -48 -8 -50 -37 -47 -16 2 -36 9 -42 14 -16
13 -17 271 -3 623 10 262 5 326 -35 404 l-23 46 2 588 c1 570 2 589 20 603 28
20 43 18 71 -11z m-4945 -80 c9 -11 11 -34 7 -75 -4 -35 -3 -62 3 -65 6 -3 10
-28 10 -55 0 -58 4 -56 -132 -64 l-88 -6 0 89 c0 48 3 109 6 134 7 52 10 53
115 56 49 1 70 -3 79 -14z m201 -12 c13 -33 5 -261 -10 -276 -13 -13 -49 1
-61 24 -6 10 -18 69 -26 131 l-16 112 22 18 c35 28 78 24 91 -9z m-43 -419
c-3 -69 -6 -79 -29 -96 -24 -18 -29 -18 -62 -5 -43 18 -52 35 -61 109 -8 65
-9 65 92 67 l63 1 -3 -76z m323 -2734 c17 -9 19 -22 19 -100 0 -107 -17 -97
188 -103 103 -2 146 -7 152 -16 10 -16 20 -257 23 -548 2 -259 7 -248 -107
-282 -63 -19 -92 -21 -388 -21 -201 0 -326 4 -339 10 -10 6 -19 20 -19 32 0
12 -8 30 -17 40 -14 15 -14 21 -4 27 20 12 293 32 412 30 59 -1 112 2 118 5
18 11 13 51 -10 80 -25 32 -43 32 -172 5 -54 -12 -101 -19 -104 -15 -11 11 -5
56 12 82 25 39 78 56 177 58 86 1 87 1 123 -34 46 -44 65 -80 65 -122 0 -48
11 -58 68 -65 l51 -6 5 34 c3 19 7 159 9 312 l2 278 -115 -3 -115 -3 4 -65 c9
-127 8 -135 -14 -131 -11 2 -67 4 -125 5 l-105 1 -3 103 -3 103 -107 -7 c-59
-4 -109 -8 -111 -10 -2 -2 1 -9 6 -16 17 -21 43 -234 44 -362 1 -106 0 -121
-17 -133 -31 -23 -66 -12 -76 22 -5 17 -9 120 -8 230 3 356 3 357 -11 366 -30
18 13 24 202 27 l199 3 6 25 c6 24 1 81 -12 136 -5 20 -2 27 13 31 33 8 64 7
84 -3z m-342 -34 c-15 -14 -35 -23 -45 -21 -11 2 -22 4 -26 4 -5 1 -8 7 -8 15
0 14 20 19 85 24 18 2 17 -1 -6 -22z m1058 -1052 c3 -8 -7 -57 -21 -107 -39
-129 -46 -146 -66 -152 -21 -7 -70 10 -70 24 0 23 62 178 85 213 27 40 61 51
72 22z m-277 -54 c0 -5 -3 -10 -8 -10 -4 0 -27 -30 -52 -67 -25 -38 -57 -82
-72 -100 -14 -17 -30 -38 -35 -47 -7 -12 -14 -13 -46 -3 -20 7 -37 17 -37 23
0 6 15 28 34 50 18 21 41 54 50 72 23 45 91 92 133 92 18 0 33 -4 33 -10z
m520 -22 c21 -34 60 -148 60 -175 0 -10 -9 -13 -32 -11 -30 3 -33 8 -66 95
-29 77 -33 95 -22 108 19 23 38 18 60 -17z m341 -56 c31 -42 64 -92 73 -109
l17 -33 -33 0 c-26 0 -41 10 -79 51 -26 28 -58 72 -71 96 -23 44 -23 44 -4 59
11 8 25 14 30 13 6 0 36 -35 67 -77z m297 5 c31 -29 69 -61 84 -70 33 -21 76
-97 55 -97 -8 0 -36 14 -63 32 -27 17 -72 47 -101 65 -28 19 -68 54 -88 78
l-36 45 46 0 c42 0 52 -5 103 -53z m-1518 30 c0 -8 -43 -53 -95 -100 -82 -74
-101 -87 -130 -87 -62 0 -52 16 90 145 50 46 66 55 98 55 24 0 37 -5 37 -13z
m-320 -11 c0 -25 -167 -166 -197 -166 -8 0 -13 11 -13 29 0 16 -6 31 -12 34
-8 3 -1 9 14 15 15 6 44 26 65 45 51 46 72 56 111 57 21 0 32 -5 32 -14z"/>
<path d="M2941 6698 c-12 -31 -6 -38 35 -38 41 0 57 26 29 46 -28 21 -55 17
-64 -8z"/>
<path d="M3493 5742 l-503 -2 0 -58 0 -58 1260 -1 1260 -1 0 62 0 61 -758 0
c-416 0 -983 -1 -1259 -3z"/>
<path d="M6700 5016 l0 -511 515 -3 515 -3 0 510 0 511 -145 0 -145 0 0 -193
c0 -181 -1 -195 -20 -215 -12 -12 -27 -22 -34 -22 -13 0 -108 72 -149 113 -17
17 -19 17 -45 -3 -62 -47 -134 -90 -152 -90 -35 0 -41 34 -43 228 l-2 187
-147 1 -148 1 0 -511z m652 -133 c12 -14 17 -50 20 -150 l5 -133 -59 0 -58 0
0 138 c0 94 4 142 12 150 18 18 63 15 80 -5z m242 -9 c13 -12 16 -40 16 -135
0 -65 0 -122 0 -126 0 -5 -24 -8 -52 -8 l-53 0 -3 133 c-3 130 -2 133 20 142
34 13 55 12 72 -6z"/>
<path d="M7110 5398 l0 -133 44 48 c24 26 48 47 53 47 5 0 31 -22 58 -50 27
-27 53 -50 57 -50 4 0 7 61 7 135 l0 135 -109 0 -110 0 0 -132z"/>
<path d="M2995 5512 c-3 -3 -5 -28 -5 -56 l0 -51 1087 2 c599 1 1167 3 1263 3
l175 0 -3 52 -4 53 -1254 1 c-689 0 -1256 -1 -1259 -4z"/>
<path d="M3120 5290 l-125 -5 -3 -47 -3 -46 1261 -1 1261 -2 -3 53 -3 53
-1130 0 c-621 1 -1186 -1 -1255 -5z"/>
<path d="M4228 5083 l-1238 -3 0 -53 0 -52 1103 1 c606 1 1173 2 1260 3 l157
1 0 55 c0 51 -2 55 -22 53 -13 -2 -580 -4 -1260 -5z"/>
<path d="M2990 4818 l0 -53 1260 -3 1260 -3 0 54 0 53 -1260 3 -1260 3 0 -54z"/>
<path d="M4155 4462 c-9 -24 -5 -58 7 -70 7 -7 38 -12 70 -12 54 0 59 2 69 27
21 56 11 66 -68 67 -52 1 -74 -3 -78 -12z"/>
<path d="M5671 3879 l3 -504 513 0 513 0 0 235 c0 129 3 353 7 498 l6 262
-151 0 -152 0 0 -198 c0 -180 -2 -200 -18 -215 -10 -10 -26 -17 -34 -17 -16 0
-86 52 -145 107 l-32 30 -28 -29 c-40 -42 -118 -98 -136 -98 -9 0 -25 12 -36
26 -20 25 -21 40 -21 210 l0 184 -129 0 c-71 0 -137 3 -146 6 -15 6 -16 -33
-14 -497z m640 -129 c17 -10 19 -22 19 -145 l0 -135 -56 0 -57 0 8 133 c4 72
12 138 17 145 13 15 43 16 69 2z m255 -11 c4 -6 8 -69 9 -140 l2 -129 -43 0
c-75 0 -74 -2 -74 130 0 94 3 122 16 134 18 18 79 21 90 5z"/>
<path d="M6173 4373 l-91 -4 -4 -127 c-2 -70 -3 -128 -2 -130 1 -2 26 20 57
48 l55 51 43 -51 c66 -78 70 -72 67 85 -3 113 -5 134 -18 133 -8 -1 -56 -4
-107 -5z"/>
<path d="M6830 3878 l0 -503 524 2 524 3 7 494 6 493 -32 7 c-17 3 -89 6 -160
6 l-129 0 0 -194 c0 -180 -1 -195 -21 -220 -11 -14 -26 -26 -34 -26 -7 0 -46
27 -87 60 -40 33 -78 60 -84 60 -6 0 -40 -22 -75 -49 -80 -60 -92 -65 -121
-41 -22 18 -23 24 -26 214 l-3 196 -145 0 -144 0 0 -502z m928 -267 l3 -131
-56 0 -55 0 0 124 c0 87 4 127 13 134 17 14 49 19 72 12 18 -7 20 -18 23 -139z
m-253 123 c13 -13 15 -37 13 -138 l-3 -121 -47 -3 -48 -3 0 134 c0 73 3 137 7
140 12 13 62 7 78 -9z"/>
<path d="M7273 4373 l-33 -4 0 -125 0 -125 46 36 c26 19 52 35 58 35 7 0 30
-18 51 -40 21 -22 43 -40 47 -40 4 0 8 61 8 135 l0 135 -72 -2 c-40 0 -88 -3
-105 -5z"/>
<path d="M5660 2750 l0 -505 353 -3 c193 -1 429 0 522 4 l170 6 -1 441 c0 243
-1 468 -2 500 l-2 57 -150 0 -150 0 0 -204 0 -205 -26 -20 c-25 -20 -27 -20
-56 -3 -16 9 -57 41 -89 71 l-60 54 -27 -25 c-15 -14 -49 -42 -75 -62 -101
-75 -117 -46 -117 208 l0 185 -145 3 -145 3 0 -505z m661 -141 c14 -14 19 -28
15 -42 -3 -12 -6 -68 -6 -124 l0 -103 -49 0 c-35 0 -51 4 -55 16 -3 9 -6 64
-6 123 0 80 4 112 16 129 19 28 58 28 85 1z m237 12 c10 -6 15 -45 17 -139 4
-113 2 -131 -12 -136 -25 -10 -83 5 -93 24 -5 9 -8 62 -7 118 2 82 6 104 21
121 20 22 51 27 74 12z"/>
<path d="M7333 3253 l-93 -4 0 -136 0 -136 45 42 c48 44 65 50 85 26 7 -9 30
-29 50 -45 l37 -29 -1 144 c-1 123 -3 145 -16 143 -8 -1 -57 -4 -107 -5z"/>
<path d="M7576 3221 c-3 -20 -6 -112 -6 -204 0 -97 -4 -177 -10 -188 -6 -10
-21 -19 -34 -19 -23 0 -127 69 -155 103 -20 25 -30 21 -96 -34 -72 -60 -99
-69 -126 -42 -18 18 -21 39 -26 216 l-6 197 -144 0 -143 0 0 -502 0 -503 530
0 530 0 0 508 0 508 -154 -2 -154 -2 -6 -36z m170 -595 c18 -13 20 -27 22
-145 l3 -131 -55 0 c-65 0 -66 1 -66 120 0 94 10 137 37 158 22 16 34 15 59
-2z m-244 -8 c20 -16 21 -18 19 -155 l-1 -113 -50 0 c-48 0 -49 0 -56 36 -8
46 5 215 18 232 6 6 20 12 32 12 12 0 29 -6 38 -12z"/>
<path d="M6074 3142 c0 -59 -4 -120 -8 -135 -7 -28 -6 -28 54 18 l61 47 49
-51 c27 -28 51 -51 54 -51 3 0 6 63 6 140 l0 140 -107 0 -108 0 -1 -108z"/>
</g>
</svg>
